<svg width="18" height="18" xmlns="http://www.w3.org/2000/svg"><g transform="translate(1 1)" fill="none"><circle stroke="#636363" fill="#636363" stroke-linecap="round" cx="8" cy="8" r="8"/><path d="M6.488 11.6a.616.616 0 0 1-.242-.049.681.681 0 0 1-.227-.161L3.38 8.662a.653.653 0 0 1-.18-.493.706.706 0 0 1 .196-.492.626.626 0 0 1 .469-.194c.187 0 .343.065.468.194l2.187 2.26 5.171-5.343a.613.613 0 0 1 .46-.194c.183 0 .337.064.462.194a.659.659 0 0 1 .187.476.659.659 0 0 1-.187.476L6.957 11.39a.681.681 0 0 1-.227.161.616.616 0 0 1-.242.049z" fill="#FFF"/></g></svg>