<svg width="48" height="48" xmlns="http://www.w3.org/2000/svg" xmlns:xlink="http://www.w3.org/1999/xlink"><defs><rect id="a" x="0" y="0" width="48" height="48" rx="8"/></defs><g fill="none" fill-rule="evenodd"><mask id="b" fill="#fff"><use xlink:href="#a"/></mask><use fill="#F8F8F8" fill-rule="nonzero" xlink:href="#a"/><path d="M38.75 23.18c.698-2.967-.064-6.231-2.287-8.547-3.27-3.407-8.526-3.518-11.92-.273a.783.783 0 0 1-1.085 0c-3.395-3.245-8.65-3.134-11.92.273-3.384 3.524-3.384 9.247 0 12.771L22.061 38.37a2.466 2.466 0 0 0 1.902.771c.776.033 1.462-.238 1.974-.771l10.525-10.965a9.017 9.017 0 0 0 1.754-2.627h-3.21a.785.785 0 0 1-.571-.249l-3.924-4.073-5.835 8.756a.784.784 0 0 1-1.211.12l-4.535-4.554h-2.826a.794.794 0 0 1-.79-.799c0-.44.354-.798.79-.798h3.152c.208 0 .408.083.556.232l4.088 4.106 5.85-8.78a.784.784 0 0 1 1.228-.103l4.368 4.545h3.403z" fill="#000" fill-rule="nonzero" mask="url(#b)"/></g></svg>