<svg width="18" height="14" xmlns="http://www.w3.org/2000/svg"><path d="M1.56 4.89c-.54.22-.88.63-.88 1.2 0 .4.27.94.81 1.16.22.09 3.36.51 3.36.51s.83 2.63 1.13 3.55c.08.26.13.39.32.57.32.29.87.2 1.1-.04.63-.62 1.61-1.58 1.61-1.58l.42.33s1.84 1.47 2.85 2.16c.59.41 1 .84 1.67.84.34 0 .88-.17 1.24-.58.24-.27.39-.71.45-1.1.14-.89 1.71-10.48 1.71-10.82a.839.839 0 0 0-.84-.83c-.24 0-.43.07-.86.2C12.31 1.48 1.78 4.79 1.56 4.89zm12.45-2.13s-4.4 3.82-6.15 5.59c-.57.56-.61 1.53-.61 1.53l-.9-2.91 7.66-4.21z"/></svg>