<svg width="17" height="19" viewBox="0 0 17 19" xmlns="http://www.w3.org/2000/svg">
    <path d="M15.7 11.7a.798.798 0 0 0-.8.8v3.2a.798.798 0 0 1-.8.8H2.9a.798.798 0 0 1-.8-.8v-3.2a.798.798 0 0 0-.8-.8.798.798 0 0 0-.8.8v3.2a2.397 2.397 0 0 0 2.4 2.4h11.2a2.397 2.397 0 0 0 2.4-2.4v-3.2a.798.798 0 0 0-.8-.8zm-7.768.568c.076.073.166.13.264.168a.751.751 0 0 0 .608 0 .803.803 0 0 0 .264-.168l3.2-3.2a.804.804 0 0 0-1.136-1.136L9.3 9.772V1.3a.798.798 0 0 0-.8-.8.798.798 0 0 0-.8.8v8.472l-1.832-1.84a.811.811 0 0 0-.568-.235.809.809 0 0 0-.568.235.811.811 0 0 0-.235.568.809.809 0 0 0 .235.568l3.2 3.2z" fill="#353740" fill-rule="nonzero"/>
</svg>
