<svg width="100" height="91" viewBox="0 0 100 91" xmlns="http://www.w3.org/2000/svg">
    <defs>
        <linearGradient x1="50%" y1=".339%" x2="50%" y2="100%" id="tbzceqtrva">
            <stop stop-color="#51DBCD" offset="0%"/>
            <stop stop-color="#1477EE" offset="100%"/>
        </linearGradient>
    </defs>
    <path d="M91.543 8.777C80.64-2.58 63.125-2.95 51.808 7.867a2.61 2.61 0 0 1-3.616 0C36.875-2.95 19.36-2.58 8.457 8.777c-11.276 11.747-11.276 30.824 0 42.571L43.54 87.895c1.706 1.777 3.994 2.681 6.34 2.572 2.588.109 4.876-.795 6.582-2.572l35.082-36.547a30.057 30.057 0 0 0 5.848-8.76H86.693c-.721 0-1.41-.298-1.907-.827l-13.08-13.576-19.45 29.184a2.614 2.614 0 0 1-4.036.401L33.105 42.59h-9.42c-1.454 0-2.632-1.192-2.632-2.661 0-1.47 1.178-2.661 2.631-2.661H34.19c.695 0 1.362.278 1.855.773L49.67 51.726l19.503-29.264a2.614 2.614 0 0 1 4.09-.346l14.559 15.15h11.344c2.327-9.888-.214-20.77-7.623-28.489z" fill="url(#tbzceqtrva)" fill-rule="nonzero"/>
</svg>
